<svg width="47" height="48" viewBox="0 0 47 48" fill="none" xmlns="http://www.w3.org/2000/svg">
<path d="M0 23.5C0 10.5213 10.5213 0 23.5 0C36.4787 0 47 10.5213 47 23.5V24.5C47 37.4787 36.4787 48 23.5 48C10.5213 48 0 37.4787 0 24.5V23.5Z" fill="#079455"/>
<path d="M16.6236 15.3513C16.8548 15.2171 17.14 15.2162 17.3721 15.3488L31.3721 23.3488C31.6058 23.4824 31.75 23.7309 31.75 24C31.75 24.2691 31.6058 24.5177 31.3721 24.6512L17.3721 32.6512C17.14 32.7838 16.8548 32.7829 16.6236 32.6487C16.3923 32.5145 16.25 32.2674 16.25 32V16C16.25 15.7326 16.3923 15.4855 16.6236 15.3513Z" fill="white"/>
</svg>
