<svg width="22" height="22" viewBox="0 0 22 22" fill="none" xmlns="http://www.w3.org/2000/svg">
<path d="M15.3029 8.2568C15.5828 7.95146 15.5621 7.47703 15.2568 7.19714C14.9515 6.91724 14.477 6.93787 14.1971 7.24321L9.22644 12.6658L7.28033 10.7197C6.98744 10.4268 6.51256 10.4268 6.21967 10.7197C5.92678 11.0126 5.92678 11.4874 6.21967 11.7803L8.71967 14.2803C8.86432 14.425 9.06178 14.5043 9.26629 14.4998C9.47081 14.4954 9.66464 14.4076 9.80287 14.2568L15.3029 8.2568Z" fill="#067647"/>
<path fill-rule="evenodd" clip-rule="evenodd" d="M10.75 21.5C4.81294 21.5 0 16.6871 0 10.75C0 4.81294 4.81294 0 10.75 0C16.6871 0 21.5 4.81294 21.5 10.75C21.5 16.6871 16.6871 21.5 10.75 21.5ZM1.5 10.75C1.5 15.8586 5.64137 20 10.75 20C15.8586 20 20 15.8586 20 10.75C20 5.64137 15.8586 1.5 10.75 1.5C5.64137 1.5 1.5 5.64137 1.5 10.75Z" fill="#067647"/>
</svg>
